PathFileType	4	(X/Y/Z)	Kaydara	
DataRate	CameraRate	NumFrames	NumMarkers	Units	OrigDataRate	OrigDataStartFrame	OrigNumFrames	
240.00	240.00	4	72	mm	240.00	1	355	
Frame#	Time	Hips			RightUpLeg			RightLeg			RightFoot			RightFoot_End			LeftUpLeg			LeftLeg			LeftFoot			LeftFoot_End			Spine			Spine1			Spine2			Spine3			Neck			Head			Head_End			RightShoulder			RightArm			RightForeArm			RightHand			RightHandThumb1			RightHandThumb2			RightHandThumb3			RightHandThumb3_End			RightInHandIndex			RightHandIndex1			RightHandIndex2			RightHandIndex3			RightHandIndex3_End			RightInHandMiddle			RightHandMiddle1			RightHandMiddle2			RightHandMiddle3			RightHandMiddle3_End			RightInHandRing			RightHandRing1			RightHandRing2			RightHandRing3			RightHandRing3_End			RightInHandPinky			RightHandPinky1			RightHandPinky2			RightHandPinky3			RightHandPinky3_End			LeftShoulder			LeftArm			LeftForeArm			LeftHand			LeftHandThumb1			LeftHandThumb2			LeftHandThumb3			LeftHandThumb3_End			LeftInHandIndex			LeftHandIndex1			LeftHandIndex2			LeftHandIndex3			LeftHandIndex3_End			LeftInHandMiddle			LeftHandMiddle1			LeftHandMiddle2			LeftHandMiddle3			LeftHandMiddle3_End			LeftInHandRing			LeftHandRing1			LeftHandRing2			LeftHandRing3			LeftHandRing3_End			LeftInHandPinky			LeftHandPinky1			LeftHandPinky2			LeftHandPinky3			LeftHandPinky3_End			
		X1	Y1	Z1	X2	Y2	Z2	X3	Y3	Z3	X4	Y4	Z4	X5	Y5	Z5	X6	Y6	Z6	X7	Y7	Z7	X8	Y8	Z8	X9	Y9	Z9	X10	Y10	Z10	X11	Y11	Z11	X12	Y12	Z12	X13	Y13	Z13	X14	Y14	Z14	X15	Y15	Z15	X16	Y16	Z16	X17	Y17	Z17	X18	Y18	Z18	X19	Y19	Z19	X20	Y20	Z20	X21	Y21	Z21	X22	Y22	Z22	X23	Y23	Z23	X24	Y24	Z24	X25	Y25	Z25	X26	Y26	Z26	X27	Y27	Z27	X28	Y28	Z28	X29	Y29	Z29	X30	Y30	Z30	X31	Y31	Z31	X32	Y32	Z32	X33	Y33	Z33	X34	Y34	Z34	X35	Y35	Z35	X36	Y36	Z36	X37	Y37	Z37	X38	Y38	Z38	X39	Y39	Z39	X40	Y40	Z40	X41	Y41	Z41	X42	Y42	Z42	X43	Y43	Z43	X44	Y44	Z44	X45	Y45	Z45	X46	Y46	Z46	X47	Y47	Z47	X48	Y48	Z48	X49	Y49	Z49	X50	Y50	Z50	X51	Y51	Z51	X52	Y52	Z52	X53	Y53	Z53	X54	Y54	Z54	X55	Y55	Z55	X56	Y56	Z56	X57	Y57	Z57	X58	Y58	Z58	X59	Y59	Z59	X60	Y60	Z60	X61	Y61	Z61	X62	Y62	Z62	X63	Y63	Z63	X64	Y64	Z64	X65	Y65	Z65	X66	Y66	Z66	X67	Y67	Z67	X68	Y68	Z68	X69	Y69	Z69	X70	Y70	Z70	X71	Y71	Z71	X72	Y72	Z72	

1	0.0	3921.0129	906.651	56.2195	4006.210867765809	894.7065608357008	4.392268823369132	3924.4808418312014	495.2173468828348	-93.08308795902474	3891.108872399369	107.22914534214497	-159.73019434036368	3816.1384488015583	32.70675238122245	-0.44483662797532714	3845.4338608478124	890.4354312620292	119.8080709646708	3777.996458998893	487.2586648721274	212.18269161821073	3740.2566423049207	55.753783402826414	297.8031229470221	3605.1736562713595	-16.552241395239587	182.9014664020684	3875.3929924304684	1032.2247850446531	4.846032114980676	3824.5642778445267	1096.4186727194597	-46.94661154077034	3767.0170729526235	1157.2421405920782	-103.25374688426137	3705.9527025444117	1206.0286363110881	-160.86117039198987	3640.382846378175	1258.5374405202106	-221.742702420055	3579.4931163731653	1306.2794528375086	-276.3295422810085	3463.2552688567102	1403.1686495843749	-327.7325123291006	3685.4433197401227	1243.2066186246009	-223.5201801168249	3740.5434154516097	1226.3359247223614	-334.5230328342654	3757.302422719936	949.8360055136109	-313.32674297013745	3819.1082375356013	695.9323495164278	-339.61019583272036	3820.7935243361117	671.8015048153164	-348.432447431515	3810.8376514870915	656.3014889667418	-355.1642742765344	3804.808885751482	644.514941819735	-358.24381010639655	3800.5567375551905	633.8400965299641	-359.4350436166016	3825.7395897969604	664.3481746702086	-343.2735317938679	3832.519688795789	619.6831614651311	-343.7821998439702	3828.963616028634	597.5858055532516	-345.2166313220915	3820.9480913417583	593.0540169463801	-347.9722847155869	3810.398183575258	595.5128768943536	-351.510373805218	3827.570404948202	663.6308659427755	-338.9322965892823	3835.176160510134	619.6753988362944	-337.07995039903227	3831.5050238848758	595.6242411884565	-338.0720850484513	3821.9349784008737	590.1863213227435	-341.12166181343883	3810.4402669285614	592.891115106539	-344.8592767113897	3828.782137033883	664.1572569849262	-335.83084721336513	3836.9173466824004	624.9094181340114	-331.4159299122151	3833.918445126122	604.079602038062	-331.69805002025413	3824.794038809891	598.9050911494854	-334.3302041670132	3814.036652039171	601.4818367751755	-337.697882840903	3829.263235781008	666.8977757137305	-332.4099828053885	3837.3298698930917	632.2172581179213	-326.18010532166977	3835.205694488379	615.917360710397	-325.5164616071264	3828.684423397278	612.3267985684597	-327.0060601676258	3819.232304913857	614.715124662997	-329.7416287537441	3638.1611289889383	1239.5833645563384	-177.98706123496902	3573.615034067916	1177.00964137069	-81.1258900367079	3698.0214700984975	986.5812738119603	-198.66507480923758	3864.5054295695622	794.6454154385166	-302.6151083923956	3850.154851888112	782.3354543081838	-321.11765408365875	3845.944819391284	761.9865456928445	-355.19501022734636	3843.8095531614226	745.9523802360854	-379.49364097698555	3842.7109487886532	730.991486483467	-400.2355465278279	3850.6782115731385	774.4569641631691	-323.7935020861464	3836.899698910002	736.9956126291116	-362.83303021807797	3832.736138659868	711.3004301963792	-395.6351897151586	3833.545671214544	699.9557533989696	-415.629731534151	3836.507784053972	693.688856386217	-431.91037528803497	3853.5822775415354	770.7110676871733	-324.24509070739936	3841.7123883798604	732.1461308993892	-362.56573006934974	3837.603770090697	703.7352899505415	-398.2994024301081	3838.789027296795	689.8697257633319	-422.39328289019653	3842.1315215378945	682.9257675231546	-440.19325582616693	3855.9329812221586	768.9971146644367	-323.5221759543578	3847.181829440365	732.878829181256	-357.1037619609827	3844.0642899446166	707.7963574166492	-388.1281464364253	3845.4537402712067	694.2522725657683	-411.304231527343	3848.7131912224636	687.6428167074196	-428.0101798189187	3859.4559936974715	768.291587907486	-321.91825232135915	3853.420392126894	734.638428058163	-351.58941215950483	3851.685726909803	714.2125791450186	-376.0973636025096	3853.067674595768	704.1686401334617	-392.83993840436773	3856.1670836770672	698.2188801019898	-407.54536679170957
2	0.004	3921.0129	906.651	56.2195	4006.1571147428353	894.7008587581994	4.38700444398964	3924.4495199895778	495.20257862547436	-93.032960781024	3891.3045668016025	107.2518021182345	-159.73439437584943	3816.333223961153	32.71795001919001	-0.45520803691863576	3845.4848941378013	890.4376726790592	119.8056018177241	3778.110089876199	487.2642947436123	212.2363954241964	3740.275126532029	55.7650615695114	297.75649170469694	3605.215830265	-16.568959413421844	182.8489714146588	3875.406612555087	1032.2406012100341	4.880905133430718	3824.570868120382	1096.4392128906738	-46.891786551375354	3767.0111633937427	1157.2591394017584	-103.18205855313091	3705.9492919270974	1206.0522997802402	-160.7789114073187	3640.381632775304	1258.5671805722723	-221.6501332490026	3579.492986105382	1306.3127695816524	-276.22927972860464	3463.241791507449	1403.1776559295613	-327.6468986702064	3685.4503080140526	1243.2541021763657	-223.41638412272098	3740.718597424601	1226.5760135663224	-334.41201993337563	3757.2177027286434	950.0002459089271	-313.6399375449172	3818.825079088424	696.116445564691	-340.4986709885401	3820.558108854076	672.0421629035352	-349.31728414077685	3810.6306926246843	656.5164920325432	-356.1128866711773	3804.6138972956815	644.7029797514955	-359.2517627387764	3800.365015813005	633.9978707357201	-360.5052354087686	3825.480457918349	664.5675984689955	-344.209926841583	3832.2680382923086	619.8960015802884	-344.85419440606995	3828.717006562553	597.7609810007506	-346.391620639771	3820.7103355133822	593.1955395697785	-349.1933624426565	3810.171614860568	595.6196399883206	-352.75749524714104	3827.2896635008033	663.8241987900514	-339.9049801908732	3834.891027548987	619.8482069786047	-338.204519873272	3831.222515512541	595.752487227012	-339.31340193494225	3821.6617723720597	590.2723047054106	-342.42067402902774	3810.1786307102884	592.9382578566164	-346.1878023315654	3828.4858893130126	664.3325998480377	-336.82574557816787	3836.6035618297706	625.0515548886327	-332.5663400465073	3833.6040159927593	604.1793884943605	-332.9544332776344	3824.487025577233	598.9622480868261	-335.64447823290874	3813.739779161935	601.50159019477	-339.04096799037035	3828.949278403452	667.0504071425398	-333.42626527306635	3836.988751131718	632.3263529101235	-327.3523735248357	3834.85956234468	615.987209996763	-326.77948763981124	3828.3415247017833	612.3629739493763	-328.3141652392238	3818.897137226614	614.7166821064149	-331.0768979591772	3638.1492409331586	1239.5902412451687	-177.9127703975973	3573.5699519700984	1176.8839664361847	-81.13078633471319	3697.585103288612	986.5358265271814	-198.91095218654735	3863.9756085816225	794.6932006314267	-303.23500327417054	3849.6693693923517	782.4623635223235	-321.73775442676924	3845.4629270541927	762.1320829269387	-355.7476758384044	3843.317341639756	746.1017336415877	-379.99283415530743	3842.1991674556252	731.1361878803714	-400.6845927565051	3850.1512240440084	774.5626673726846	-324.3948824893924	3836.327834748052	737.1369917056086	-363.3620453877918	3832.1310017152787	711.4433558092524	-396.0892781893324	3832.9326515150146	700.0915523888427	-416.03467210243076	3835.896876516872	693.8133010586082	-432.27290466405	3853.021887141432	770.7895182180511	-324.83011454887037	3841.0901594556785	732.2446443213897	-363.0713307711211	3836.9409693416915	703.8317502569358	-398.7212892598668	3838.1146701783086	689.9557926461904	-422.7549366791074	3841.458480455763	682.9985385389951	-440.508048200951	3855.350065075268	769.0555843536738	-324.09768269239333	3846.5237289195584	732.9384718404397	-357.6003920628933	3843.366566060106	707.850353682684	-388.5499369992753	3844.7426068816712	694.2941954304387	-411.66692693496987	3848.002223470969	687.6712669100632	-428.32834217785665	3858.848982002513	768.3245486756199	-322.48337100776837	3852.729311295654	734.6573660924296	-352.0764034074603	3850.956598861612	714.2209714464971	-376.5218446269426	3852.3257094526243	704.1653126124405	-393.2200662123807	3855.423505730581	698.2019409871166	-407.8853271414655
3	0.008	3921.0129	906.651	56.2195	4006.1169849636935	894.6971086157184	4.3846465145619025	3924.4336817129097	495.18783924270247	-92.9787088589175	3891.4860515367013	107.27068367100398	-159.73093487343024	3816.5128867588	32.72708662978797	-0.4574959700385443	3845.5212286317296	890.4377970875753	119.80103298342648	3778.1825435934707	487.26827936572147	212.27233880811477	3740.2820542137697	55.773933949889106	297.72645700949744	3605.2415613098037	-16.5822279702871	182.81420274073562	3875.4246502268306	1032.2570750197667	4.912015164579973	3824.595720048222	1096.4694961300654	-46.844872058414246	3767.0357702614674	1157.2934975384396	-103.12491928098986	3705.984677493772	1206.0970079712217	-160.72018918054934	3640.4276851485565	1258.621844173406	-221.59027278084162	3579.547351676952	1306.3744645804702	-276.1696714708934	3463.281049522871	1403.212645260632	-327.60292802481507	3685.5072001509334	1243.3266246783405	-223.34430616125363	3740.95378691745	1226.8476117976315	-334.3600966447657	3757.2040990138375	950.1971386301797	-313.9878691799782	3818.6276922581046	696.3542640657328	-341.4405117483889	3820.4058055686523	672.3395908660159	-350.2713194100614	3810.4940218775155	656.8008050002918	-357.1413245384647	3804.480195031245	644.9694230195133	-360.34480436375577	3800.2270148732546	634.2419429671461	-361.6630760284583	3825.3049070011716	664.8445844487563	-345.2093675391995	3832.0921644813275	620.1770265567038	-345.99586228759665	3828.5355729693633	598.015938560724	-347.64059978860644	3820.528990774724	593.4252426586037	-350.49217787115595	3809.9927361221708	595.8223363858073	-354.086174413964	3827.092335300528	664.0759101058677	-340.9346521625318	3834.6816065838784	620.0901951326512	-339.3892658367098	3831.004148215642	595.962646620089	-340.6187844669773	3821.442131560303	590.4503714366493	-343.78787951288206	3809.9610164866963	593.0859853870877	-347.5885093792318	3828.2731860175236	664.566588688391	-337.87317409583255	3836.3666810649065	625.2621383536107	-333.7682391896871	3833.356413886161	604.358783706838	-334.2648512604499	3824.236642527906	599.1088573296898	-337.0163200134762	3813.490565457206	601.6188053976625	-340.4451584243819	3828.718845007205	667.2619861027952	-334.48982358289277	3836.725220277746	632.5034453901778	-328.56769304987097	3834.582990167041	616.1340522089291	-328.0862910742331	3828.0607683151106	612.4833495868895	-329.66798985242434	3818.6161765965326	614.8095507748781	-332.4606551001782	3638.176167193977	1239.619341406186	-177.8658162306029	3573.5328056912176	1176.7850329246282	-81.1518820362067	3697.2225661236416	986.5266924375766	-199.18118789179894	3863.568117744419	794.7799709941742	-303.8535752414679	3849.2971964072904	782.6180720180365	-322.3756619682607	3845.0980546853366	762.3019625682699	-356.3418070314846	3842.946144325803	746.2739797636765	-380.5488407624828	3841.8129366380317	731.3039882743076	-401.2022823211834	3849.740810327537	774.7019849140651	-325.0112623080486	3835.8731505126802	737.3106882899277	-363.92907337294145	3831.6486124800954	711.6186543448947	-396.6001711316517	3832.4474698066824	700.2590380901847	-416.50875690608893	3835.419118899423	693.9683780067685	-432.71523525373806	3852.582129716251	770.906172307305	-325.4264010673289	3840.591348786693	732.3825782844658	-363.6086188324969	3836.4082025103758	703.9683026174453	-399.1948046096829	3837.5767473717933	690.0814166660659	-423.1828358304941	3840.927811886307	683.1098555954899	-440.9006148139553	3854.8905913210747	769.1555336319117	-324.68119382478756	3845.9938802114693	733.0435313272177	-358.1204121377885	3842.803408206904	707.9509745369036	-389.01188980288333	3844.1725043945316	694.3825574752482	-412.0835603824552	3847.4380079604293	687.7453621854138	-428.7111295690155	3858.3689711850498	768.402796051763	-323.05231625388564	3852.171692545869	734.7275512087945	-352.5786604547011	3850.3668234863053	714.2825319812417	-376.97400588607167	3851.728216165076	704.2154796150825	-393.6374307848014	3854.8297000397843	698.2380585574391	-408.2717082579443
4	0.013	3921.0129	906.651	56.2195	4006.088843899576	894.6948471564557	4.384782053854394	3924.430985523903	495.17301050312375	-92.92103483418691	3891.6542026447637	107.2861467948226	-159.72092238459803	3816.678477378288	32.73429506869687	-0.45284025623168206	3845.5445988686442	890.4363083075923	119.79475848661758	3778.2190104856018	487.2710305312428	212.29282651696235	3740.2790284129546	55.780943231776476	297.7116040033387	3605.252893240802	-16.592001646925585	182.7956304386958	3875.446703892815	1032.2740410051176	4.939469103330557	3824.637150319321	1096.5084354161502	-46.80539414711862	3767.088680445398	1157.3440387820647	-103.08113461547026	3706.055881768484	1206.1611786099204	-160.68300148314793	3640.5172293786927	1258.699417477711	-221.56028161339242	3579.6517404080046	1306.4621344420348	-276.1471340139931	3463.3682569103044	1403.2710139214166	-327.59657417366344	3685.609822509528	1243.42196810339	-223.30120390680906	3741.243087909392	1227.1475283806258	-334.36189503750626	3757.254811465413	950.4243478628409	-314.3652579878343	3818.511384370496	696.6434546385569	-342.42997629156764	3820.3317939743247	672.6917734570962	-351.286813178001	3810.4245134333055	657.1520528433915	-358.24018518930825	3804.4060002489223	645.3115787162541	-361.5126550768211	3800.1422218465473	634.5692977077238	-362.89779433867824	3825.208573924661	665.1769598687507	-346.26496643605435	3831.9893867030896	620.5238550660151	-347.199476636557	3828.418495609531	598.3478677259668	-348.9550981154344	3820.4045068562214	593.7399640293886	-351.8595467984723	3809.8631234877435	596.1174556000148	-355.48646709728325	3826.974485445769	664.3836377553276	-342.0152100115741	3834.5458351665775	620.3986953285516	-340.62769168877423	3830.8499422166096	596.2515584027178	-341.9810304693814	3821.277632505056	590.7169244374128	-345.2152661387182	3809.790245400105	593.3303137322835	-349.05257891822356	3828.1403462751427	664.8567352781216	-338.9676095358769	3836.204905784538	625.5383037798849	-335.0162633930951	3833.175705638574	604.6144684858244	-335.62343404471045	3824.044484313626	599.3411658691083	-338.43913624089544	3813.2917884600397	601.8293593809923	-341.90312967838634	3828.568542740639	667.5298661535672	-335.5958005446461	3836.5377702321653	632.7454542669009	-329.82177419217646	3834.376034732224	616.3544051079725	-329.4323464267719	3827.843359338333	612.6841089320739	-331.0625628407908	3818.391695459556	614.989576050056	-333.8873284226178	3638.2390901829244	1239.6691514422737	-177.84384993193555	3573.5039413708923	1176.7123786069094	-81.18766364638189	3696.9279553025062	986.552487220146	-199.4715150195776	3863.268674220787	794.9044108883907	-304.4696057139165	3849.0246538712704	782.8018719319186	-323.02722702062755	3844.8351191944525	762.495403397323	-356.9707465220521	3842.679756201819	746.4682027968682	-381.1534795680227	3841.5349926844415	731.4937882908032	-401.77935375833	3849.432995095767	774.8740164633247	-325.63900283704686	3835.5208911158556	737.5159065119664	-364.5276756073141	3831.2727914356024	711.8253304491495	-397.159572922899	3832.072754937812	700.4570015873887	-417.0426221004088	3835.0559472661694	694.1526412116823	-433.22717724970306	3852.2486230758063	771.0598860395772	-326.03101809013873	3840.2005938416514	732.5587590965712	-364.1723133032351	3835.988500459012	704.1435228321858	-399.7127435451334	3837.156826994325	690.2449002630835	-423.6685357681656	3840.519766640407	683.2577539973911	-441.36163125502947	3854.5399180801137	769.2956460953759	-325.2703477856318	3845.5765603957607	733.1925213066305	-358.6598508297937	3842.3576412288808	708.0964817844364	-389.5084649134824	3843.7248191142166	694.5153390226343	-412.54745379825175	3847.0006793062307	687.8628232695038	-429.15106391468555	3858.0009807762485	768.5247941271598	-323.62346545504636	3851.7313812443017	734.8471638805914	-353.09353880917314	3849.899006853581	714.3951879840546	-377.45012292933006	3851.2567145532025	704.3168380898549	-394.08756270695744	3854.3660564005745	698.3246854495065	-408.6993810688408
